<svg width="29" height="28" viewBox="0 0 29 28" fill="none" xmlns="http://www.w3.org/2000/svg">
<path d="M14.6668 0.27832C12.8429 0.27832 11.0368 0.637569 9.35172 1.33555C7.66663 2.03354 6.13552 3.05659 4.84581 4.3463C2.24113 6.95099 0.777832 10.4837 0.777832 14.1673C0.777832 20.3062 4.76396 25.5146 10.2779 27.3618C10.9723 27.4729 11.1946 27.0423 11.1946 26.6673V24.3201C7.34731 25.1534 6.52786 22.459 6.52786 22.459C5.88897 20.8479 4.98619 20.4173 4.98619 20.4173C3.72229 19.5562 5.08341 19.584 5.08341 19.584C6.4723 19.6812 7.20842 21.0145 7.20842 21.0145C8.41676 23.1257 10.4584 22.5007 11.2501 22.1673C11.3751 21.2645 11.7362 20.6534 12.1251 20.3062C9.04176 19.959 5.80563 18.7645 5.80563 13.4728C5.80563 11.9312 6.33342 10.695 7.2362 9.70892C7.09731 9.3617 6.61119 7.91725 7.37509 6.04224C7.37509 6.04224 8.54176 5.66724 11.1946 7.45891C12.2918 7.15335 13.4862 7.00058 14.6668 7.00058C15.8474 7.00058 17.0418 7.15335 18.139 7.45891C20.7918 5.66724 21.9585 6.04224 21.9585 6.04224C22.7224 7.91725 22.2363 9.3617 22.0974 9.70892C23.0002 10.695 23.5279 11.9312 23.5279 13.4728C23.5279 18.7784 20.2779 19.9451 17.1807 20.2923C17.6807 20.7229 18.139 21.5701 18.139 22.8618V26.6673C18.139 27.0423 18.3613 27.4868 19.0696 27.3618C24.5835 25.5007 28.5557 20.3062 28.5557 14.1673C28.5557 12.3434 28.1965 10.5373 27.4985 8.8522C26.8005 7.16712 25.7775 5.63601 24.4878 4.3463C23.1981 3.05659 21.667 2.03354 19.9819 1.33555C18.2968 0.637569 16.4907 0.27832 14.6668 0.27832Z" fill="white"/>
</svg>
