<svg width="54" height="54" viewBox="0 0 54 54" fill="none" xmlns="http://www.w3.org/2000/svg">
<g clip-path="url(#clip0_0_216)">
<path d="M38.7078 0.23999H15.2929C12.5333 0.23999 10.2754 2.49786 10.2754 5.25747V48.7423C10.2754 51.5019 12.5333 53.7598 15.2929 53.7598H38.7078C41.4674 53.7598 43.7253 51.5019 43.7253 48.7423V5.25747C43.7253 2.49786 41.4674 0.23999 38.7078 0.23999ZM20.3103 2.74873H33.6903V4.42122H20.3103V2.74873ZM27.0003 50.4148C26.1132 50.4148 25.2624 50.0624 24.6351 49.4351C24.0078 48.8077 23.6553 47.9569 23.6553 47.0698C23.6553 46.1826 24.0078 45.3318 24.6351 44.7045C25.2624 44.0772 26.1132 43.7248 27.0003 43.7248C27.8875 43.7248 28.7383 44.0772 29.3656 44.7045C29.9929 45.3318 30.3453 46.1826 30.3453 47.0698C30.3453 47.9569 29.9929 48.8077 29.3656 49.4351C28.7383 50.0624 27.8875 50.4148 27.0003 50.4148ZM40.3803 40.3798H13.6204V6.92996H40.3803V40.3798Z" fill="#006B6A"/>
</g>
<defs>
<clipPath id="clip0_0_216">
<rect width="53.5198" height="53.5198" fill="white" transform="translate(0.240234 0.23999)"/>
</clipPath>
</defs>
</svg>
