<svg width="55" height="55" viewBox="0 0 55 55" fill="none" xmlns="http://www.w3.org/2000/svg">
<path d="M27.5003 50.9798C14.553 50.9798 4.02075 40.4475 4.02075 27.5002H7.37497C7.37497 38.5977 16.4028 47.6255 27.5003 47.6255C38.5977 47.6255 47.6256 38.5977 47.6256 27.5002H50.9798C50.9798 40.4475 40.4476 50.9798 27.5003 50.9798Z" fill="#006B6A"/>
<path d="M27.5003 44.2713C18.2528 44.2713 10.7292 36.7478 10.7292 27.5002H14.0835C14.0835 34.898 20.1026 40.9171 27.5003 40.9171C34.8981 40.9171 40.9172 34.898 40.9172 27.5002H44.2714C44.2714 36.7478 36.7479 44.2713 27.5003 44.2713Z" fill="#006B6A"/>
<path d="M27.5003 34.2088C23.8006 34.2088 20.7918 31.2001 20.7918 27.5004C20.7918 23.8007 23.8006 20.7919 27.5003 20.7919C31.2 20.7919 34.2087 23.8007 34.2087 27.5004C34.2087 31.2001 31.2 34.2088 27.5003 34.2088ZM27.5003 24.1462C25.6504 24.1462 24.1461 25.6505 24.1461 27.5004C24.1461 29.3502 25.6504 30.8546 27.5003 30.8546C29.3501 30.8546 30.8545 29.3502 30.8545 27.5004C30.8545 25.6505 29.3501 24.1462 27.5003 24.1462ZM27.5003 4.02086C23.4479 4.01742 19.4638 5.06437 15.9367 7.05956C12.4095 9.05476 9.4597 11.9301 7.37497 15.4051V7.37508H4.02075V20.7919H17.4376V17.4377H10.0785C13.644 11.2576 20.235 7.37508 27.5003 7.37508C32.8754 7.37508 37.9302 9.46811 41.7305 13.2701L44.1037 10.897C41.9287 8.70932 39.3413 6.97505 36.4912 5.79471C33.6411 4.61437 30.5851 4.01144 27.5003 4.02086Z" fill="#006B6A"/>
</svg>
