<svg width="14" height="25" viewBox="0 0 14 25" fill="none" xmlns="http://www.w3.org/2000/svg">
<path d="M12.6667 4.65527H8.66667C7.93027 4.65527 7.33333 5.25223 7.33333 5.98861V9.98861H12.6667C12.8183 9.98525 12.9621 10.0558 13.0523 10.1778C13.1424 10.2998 13.1677 10.4579 13.12 10.6019L12.1333 13.5353C12.0424 13.8045 11.7908 13.9865 11.5067 13.9886H7.33333V23.9886C7.33333 24.3567 7.0348 24.6553 6.66667 24.6553H3.33333C2.96515 24.6553 2.66667 24.3567 2.66667 23.9886V13.9886H0.666667C0.29848 13.9886 0 13.6901 0 13.3219V10.6553C0 10.2871 0.29848 9.98861 0.666667 9.98861H2.66667V5.98861C2.66667 3.04309 5.05453 0.655273 8 0.655273H12.6667C13.0348 0.655273 13.3333 0.953753 13.3333 1.32194V3.98861C13.3333 4.35679 13.0348 4.65527 12.6667 4.65527Z" fill="black"/>
</svg>
