<svg width="25" height="25" viewBox="0 0 25 25" fill="none" xmlns="http://www.w3.org/2000/svg">
<path fill-rule="evenodd" clip-rule="evenodd" d="M18.0001 0.655273H7.33342C3.65152 0.655273 0.666748 3.64005 0.666748 7.32194V17.9886C0.666748 21.6705 3.65152 24.6553 7.33342 24.6553H18.0001C21.6819 24.6553 24.6667 21.6705 24.6667 17.9886V7.32194C24.6667 3.64005 21.6819 0.655273 18.0001 0.655273ZM22.3334 17.9886C22.3261 20.3787 20.3902 22.3146 18.0001 22.3219H7.33342C4.94321 22.3146 3.0074 20.3787 3.00008 17.9886V7.32194C3.0074 4.93174 4.94321 2.99593 7.33342 2.98861H18.0001C20.3902 2.99593 22.3261 4.93174 22.3334 7.32194V17.9886ZM19.0001 7.65527C19.7365 7.65527 20.3334 7.05831 20.3334 6.32194C20.3334 5.58557 19.7365 4.98861 19.0001 4.98861C18.2637 4.98861 17.6667 5.58557 17.6667 6.32194C17.6667 7.05831 18.2637 7.65527 19.0001 7.65527ZM12.6667 6.65527C9.35304 6.65527 6.66675 9.34157 6.66675 12.6553C6.66675 15.969 9.35304 18.6553 12.6667 18.6553C15.9805 18.6553 18.6667 15.969 18.6667 12.6553C18.6703 11.0629 18.0393 9.5347 16.9133 8.40871C15.7873 7.28273 14.2591 6.65173 12.6667 6.65527ZM9.00008 12.6553C9.00008 14.6803 10.6417 16.3219 12.6667 16.3219C14.6918 16.3219 16.3334 14.6803 16.3334 12.6553C16.3334 10.6302 14.6918 8.98861 12.6667 8.98861C10.6417 8.98861 9.00008 10.6302 9.00008 12.6553Z" fill="black"/>
</svg>
