<svg width="25" height="22" viewBox="0 0 25 22" fill="none" xmlns="http://www.w3.org/2000/svg">
<path d="M24.6304 3.61181C24.0112 4.43784 23.2627 5.15838 22.4137 5.74562C22.4137 5.9614 22.4137 6.17717 22.4137 6.40494C22.4205 10.3234 20.8553 14.0807 18.0691 16.8346C15.2827 19.5885 11.5083 21.1085 7.59207 21.0538C5.32799 21.0614 3.0929 20.5445 1.0619 19.5434C0.952376 19.4955 0.881749 19.3873 0.882163 19.2677V19.1358C0.882163 18.9637 1.02164 18.8242 1.1937 18.8242C3.41923 18.7507 5.56536 17.9791 7.32846 16.6185C5.31404 16.5778 3.50159 15.3845 2.66747 13.5495C2.62535 13.4494 2.63846 13.3343 2.7021 13.2462C2.76572 13.1581 2.87067 13.1095 2.979 13.1181C3.59123 13.1795 4.20958 13.1226 4.80027 12.9502C2.57652 12.4886 0.905616 10.6425 0.666483 8.38288C0.657989 8.27448 0.706563 8.16954 0.794669 8.10581C0.882763 8.04221 0.997656 8.02901 1.09784 8.07128C1.69459 8.33461 2.33879 8.47328 2.99099 8.47874C1.04246 7.19989 0.200816 4.76734 0.942069 2.5569C1.01859 2.34212 1.20242 2.18344 1.426 2.1392C1.64958 2.09494 1.87995 2.17165 2.03243 2.34113C4.66186 5.13961 8.27472 6.80722 12.1092 6.99233C12.0111 6.60041 11.9628 6.19762 11.9655 5.79357C12.0013 3.6749 13.3123 1.78756 15.2845 1.0151C17.2567 0.242662 19.4999 0.737983 20.964 2.2692C21.9619 2.07908 22.9267 1.74388 23.8276 1.27422C23.8936 1.23302 23.9773 1.23302 24.0433 1.27422C24.0845 1.34025 24.0845 1.42397 24.0433 1.49C23.6069 2.4893 22.8697 3.32744 21.9345 3.88753C22.7535 3.79256 23.558 3.59937 24.3309 3.31213C24.396 3.26784 24.4815 3.26784 24.5465 3.31213C24.6011 3.33706 24.6419 3.38476 24.658 3.4425C24.6741 3.50025 24.664 3.56218 24.6304 3.61181Z" fill="black"/>
</svg>
