<svg width="25" height="25" viewBox="0 0 25 25" fill="none" xmlns="http://www.w3.org/2000/svg">
<path fill-rule="evenodd" clip-rule="evenodd" d="M3.33341 0.655273H22.0001C23.4729 0.655273 24.6667 1.84918 24.6667 3.32194V21.9886C24.6667 23.4614 23.4729 24.6553 22.0001 24.6553H3.33341C1.86065 24.6553 0.666748 23.4614 0.666748 21.9886V3.32194C0.666748 1.84918 1.86065 0.655273 3.33341 0.655273ZM7.33342 20.6553C7.7016 20.6553 8.00008 20.3567 8.00008 19.9886V10.6553C8.00008 10.2871 7.7016 9.98861 7.33342 9.98861H5.33342C4.96523 9.98861 4.66675 10.2871 4.66675 10.6553V19.9886C4.66675 20.3567 4.96523 20.6553 5.33342 20.6553H7.33342ZM6.33342 8.65527C5.22884 8.65527 4.33341 7.75985 4.33341 6.65527C4.33341 5.5507 5.22884 4.65527 6.33342 4.65527C7.43799 4.65527 8.33342 5.5507 8.33342 6.65527C8.33342 7.75985 7.43799 8.65527 6.33342 8.65527ZM20.0001 20.6553C20.3682 20.6553 20.6667 20.3567 20.6667 19.9886V13.8553C20.7101 11.7363 19.1435 9.92797 17.0401 9.66861C15.5694 9.53427 14.1445 10.2211 13.3334 11.4553V10.6553C13.3334 10.2871 13.0349 9.98861 12.6667 9.98861H10.6667C10.2986 9.98861 10.0001 10.2871 10.0001 10.6553V19.9886C10.0001 20.3567 10.2986 20.6553 10.6667 20.6553H12.6667C13.0349 20.6553 13.3334 20.3567 13.3334 19.9886V14.9886C13.3334 13.8841 14.2289 12.9886 15.3334 12.9886C16.4379 12.9886 17.3334 13.8841 17.3334 14.9886V19.9886C17.3334 20.3567 17.6319 20.6553 18.0001 20.6553H20.0001Z" fill="black"/>
</svg>
