<svg width="155" height="26" viewBox="0 0 155 26" fill="none" xmlns="http://www.w3.org/2000/svg">
<g clip-path="url(#clip0_1296_20)">
<path d="M12.4278 0.953177C12.8861 -0.135435 14.4471 -0.135434 14.9054 0.95318L17.6104 7.37836C17.8038 7.8373 18.2407 8.15087 18.7421 8.19059L25.7635 8.74669C26.9531 8.84091 27.4355 10.3076 26.5291 11.0746L21.1796 15.6016C20.7975 15.925 20.6306 16.4324 20.7473 16.9158L22.3817 23.6847C22.6586 24.8315 21.3958 25.7381 20.3773 25.1235L14.366 21.4961C13.9366 21.237 13.3966 21.237 12.9672 21.4961L6.9559 25.1235C5.9374 25.7381 4.67453 24.8315 4.95143 23.6847L6.58581 16.9158C6.70256 16.4324 6.53568 15.925 6.15359 15.6016L0.804002 11.0746C-0.102372 10.3076 0.380009 8.84091 1.56964 8.74669L8.59106 8.19059C9.09258 8.15087 9.52946 7.8373 9.72267 7.37836L12.4278 0.953177Z" fill="#006B6A"/>
<path d="M44.4278 0.953177C44.8861 -0.135435 46.4471 -0.135434 46.9054 0.95318L49.6104 7.37836C49.8038 7.8373 50.2407 8.15087 50.7421 8.19059L57.7635 8.74669C58.9531 8.84091 59.4355 10.3076 58.5291 11.0746L53.1796 15.6016C52.7975 15.925 52.6306 16.4324 52.7473 16.9158L54.3817 23.6847C54.6586 24.8315 53.3958 25.7381 52.3773 25.1235L46.366 21.4961C45.9366 21.237 45.3966 21.237 44.9672 21.4961L38.9559 25.1235C37.9374 25.7381 36.6745 24.8315 36.9514 23.6847L38.5858 16.9158C38.7026 16.4324 38.5357 15.925 38.1536 15.6016L32.804 11.0746C31.8976 10.3076 32.38 8.84091 33.5696 8.74669L40.5911 8.19059C41.0926 8.15087 41.5295 7.8373 41.7227 7.37836L44.4278 0.953177Z" fill="#006B6A"/>
<path d="M76.4278 0.953177C76.8861 -0.135435 78.4471 -0.135434 78.9054 0.95318L81.6104 7.37836C81.8038 7.8373 82.2407 8.15087 82.7421 8.19059L89.7635 8.74669C90.9531 8.84091 91.4355 10.3076 90.5291 11.0746L85.1796 15.6016C84.7975 15.925 84.6306 16.4324 84.7473 16.9158L86.3817 23.6847C86.6586 24.8315 85.3958 25.7381 84.3773 25.1235L78.366 21.4961C77.9366 21.237 77.3966 21.237 76.9672 21.4961L70.9559 25.1235C69.9374 25.7381 68.6745 24.8315 68.9514 23.6847L70.5858 16.9158C70.7026 16.4324 70.5357 15.925 70.1536 15.6016L64.804 11.0746C63.8976 10.3076 64.38 8.84091 65.5696 8.74669L72.5911 8.19059C73.0926 8.15087 73.5295 7.8373 73.7227 7.37836L76.4278 0.953177Z" fill="#006B6A"/>
<path d="M108.428 0.953177C108.886 -0.135435 110.447 -0.135434 110.905 0.95318L113.61 7.37836C113.804 7.8373 114.24 8.15087 114.742 8.19059L121.763 8.74669C122.953 8.84091 123.435 10.3076 122.529 11.0746L117.179 15.6016C116.797 15.925 116.63 16.4324 116.747 16.9158L118.381 23.6847C118.658 24.8315 117.396 25.7381 116.377 25.1235L110.366 21.4961C109.936 21.237 109.396 21.237 108.967 21.4961L102.956 25.1235C101.937 25.7381 100.674 24.8315 100.951 23.6847L102.586 16.9158C102.702 16.4324 102.535 15.925 102.153 15.6016L96.8038 11.0746C95.8974 10.3076 96.3798 8.84091 97.5694 8.74669L104.591 8.19059C105.092 8.15087 105.529 7.8373 105.722 7.37836L108.428 0.953177Z" fill="#006B6A"/>
<path d="M140.428 0.953177C140.886 -0.135435 142.447 -0.135434 142.905 0.95318L145.61 7.37836C145.804 7.8373 146.24 8.15087 146.742 8.19059L153.763 8.74669C154.953 8.84091 155.435 10.3076 154.529 11.0746L149.179 15.6016C148.797 15.925 148.63 16.4324 148.747 16.9158L150.381 23.6847C150.658 24.8315 149.396 25.7381 148.377 25.1235L142.366 21.4961C141.936 21.237 141.396 21.237 140.967 21.4961L134.956 25.1235C133.937 25.7381 132.674 24.8315 132.951 23.6847L134.586 16.9158C134.702 16.4324 134.535 15.925 134.153 15.6016L128.804 11.0746C127.897 10.3076 128.38 8.84091 129.569 8.74669L136.591 8.19059C137.092 8.15087 137.529 7.8373 137.722 7.37836L140.428 0.953177Z" fill="#006B6A"/>
</g>
<defs>
<clipPath id="clip0_1296_20">
<rect width="154.666" height="25.1852" fill="white" transform="translate(0.333252 0.136719)"/>
</clipPath>
</defs>
</svg>
